<svg xmlns="http://www.w3.org/2000/svg" version="1.1" xmlns:xlink="http://www.w3.org/1999/xlink" xmlns:svgjs="http://svgjs.com/svgjs" width="1000" height="1000"><rect width="1000" height="1000" rx="500" ry="500" fill="#ffffff"></rect><g transform="matrix(2,0,0,2,-0.5294952392578125,4)"><svg xmlns="http://www.w3.org/2000/svg" version="1.1" xmlns:xlink="http://www.w3.org/1999/xlink" xmlns:svgjs="http://svgjs.com/svgjs" width="500" height="500"><svg width="500" height="500" viewBox="0 0 500 500" fill="none" xmlns="http://www.w3.org/2000/svg">
<path d="M133 316C126.067 316 121.133 314.6 118.2 311.8C115.4 308.867 114 303.933 114 297V195C114 188.067 115.4 183.2 118.2 180.4C121.133 177.467 126.067 176 133 176H158.8C162.667 176 165.4 177 167 179C168.733 180.867 170 183.733 170.8 187.6H139.4C135.267 187.6 132.667 188.467 131.6 190.2C130.533 191.933 130 194.867 130 199V293C130 297.133 130.533 300.067 131.6 301.8C132.667 303.533 135.267 304.4 139.4 304.4H170.8V310.6C170.8 312.733 170.467 314.2 169.8 315C169.267 315.667 167.933 316 165.8 316H133ZM248.13 267.4C247.196 269.4 246.263 270.8 245.33 271.6C244.53 272.4 243.263 272.8 241.53 272.8H235.13L207.33 199.6H206.13L207.73 223.8L208.73 310.6C208.73 312.733 208.33 314.2 207.53 315C206.863 315.667 205.463 316 203.33 316H192.33V181.4C192.33 179.267 192.663 177.867 193.33 177.2C194.13 176.4 195.596 176 197.73 176H211.13L236.73 241.2L241.13 257.8H242.33L246.93 241.2L272.13 181.4C272.93 179.533 273.863 178.2 274.93 177.4C275.996 176.467 277.53 176 279.53 176H291.53V310.6C291.53 312.733 291.13 314.2 290.33 315C289.663 315.667 288.263 316 286.13 316H275.53V223.8L277.33 199.6H276.13L248.13 267.4ZM349.259 316C347.126 316 345.726 315.667 345.059 315C344.526 314.2 344.259 312.733 344.259 310.6V304.4H361.659C365.793 304.4 368.393 303.533 369.459 301.8C370.526 300.067 371.059 297.133 371.059 293V199C371.059 194.867 370.526 191.933 369.459 190.2C368.393 188.467 365.793 187.6 361.659 187.6H336.259V316H320.259V181.4C320.259 179.267 320.593 177.867 321.259 177.2C322.059 176.4 323.526 176 325.659 176H368.059C374.993 176 379.859 177.467 382.659 180.4C385.593 183.2 387.059 188.067 387.059 195V297C387.059 303.933 385.593 308.867 382.659 311.8C379.859 314.6 374.993 316 368.059 316H349.259Z" fill="black"></path>
</svg></svg></g></svg>